<svg width="183" height="170" viewBox="0 0 183 170" fill="none" xmlns="http://www.w3.org/2000/svg">
<path d="M7.65737 32L0.841372 9.6H5.76937L9.41737 22.112C9.56671 22.56 9.69471 23.0507 9.80137 23.584C9.92937 24.096 10.0254 24.5973 10.0894 25.088C10.1747 25.5573 10.2387 26.0053 10.2814 26.432C10.3454 26.8373 10.3987 27.1787 10.4414 27.456L9.67337 27.424C9.86537 26.528 10.0254 25.7813 10.1534 25.184C10.2814 24.5653 10.3987 24.0213 10.5054 23.552C10.6334 23.0613 10.7827 22.5707 10.9534 22.08L14.4734 12.832H18.4414L21.8974 22.08C22.1534 22.72 22.356 23.3387 22.5054 23.936C22.676 24.512 22.8147 25.0773 22.9214 25.632C23.028 26.1653 23.1347 26.7093 23.2414 27.264L22.5374 27.392C22.6014 26.944 22.644 26.56 22.6654 26.24C22.708 25.8987 22.74 25.5893 22.7614 25.312C22.804 25.0347 22.8467 24.7573 22.8894 24.48C22.932 24.1813 22.996 23.84 23.0814 23.456C23.1667 23.0507 23.2947 22.5813 23.4654 22.048L27.0814 9.6H31.9454L25.0654 32H21.5134L15.9774 18.752L16.4894 18.816L11.3374 32H7.65737ZM41.1534 32.32C39.3187 32.32 37.7187 31.9467 36.3534 31.2C34.988 30.4533 33.9214 29.4293 33.1534 28.128C32.3854 26.8267 32.0014 25.3333 32.0014 23.648C32.0014 22.3467 32.2147 21.152 32.6414 20.064C33.068 18.976 33.6654 18.0373 34.4334 17.248C35.2014 16.4373 36.108 15.8187 37.1534 15.392C38.22 14.944 39.372 14.72 40.6094 14.72C41.7614 14.72 42.828 14.9333 43.8094 15.36C44.7907 15.7653 45.6334 16.352 46.3374 17.12C47.0627 17.8667 47.6174 18.752 48.0014 19.776C48.3854 20.8 48.556 21.92 48.5134 23.136L48.4814 24.544H34.8814L34.1454 21.76H44.7374L44.2254 22.336V21.632C44.1827 21.056 43.9907 20.5333 43.6494 20.064C43.3294 19.5947 42.9134 19.232 42.4014 18.976C41.8894 18.72 41.3134 18.592 40.6734 18.592C39.7347 18.592 38.9347 18.7733 38.2734 19.136C37.6334 19.4987 37.1427 20.032 36.8014 20.736C36.46 21.44 36.2894 22.2933 36.2894 23.296C36.2894 24.32 36.5027 25.2053 36.9294 25.952C37.3774 26.6987 37.996 27.2853 38.7854 27.712C39.596 28.1173 40.5454 28.32 41.6334 28.32C42.38 28.32 43.0627 28.2027 43.6814 27.968C44.3 27.7333 44.9614 27.328 45.6654 26.752L47.8414 29.792C47.2227 30.3467 46.54 30.816 45.7934 31.2C45.0467 31.5627 44.2787 31.84 43.4894 32.032C42.7 32.224 41.9214 32.32 41.1534 32.32ZM51.2634 32V8.32H55.8074V32H51.2634ZM66.8264 32.32C65.205 32.32 63.7544 31.936 62.4744 31.168C61.1944 30.4 60.181 29.3547 59.4344 28.032C58.709 26.7093 58.3464 25.2053 58.3464 23.52C58.3464 21.856 58.709 20.3627 59.4344 19.04C60.181 17.696 61.1944 16.64 62.4744 15.872C63.7544 15.104 65.205 14.72 66.8264 14.72C68.341 14.72 69.7277 14.9973 70.9864 15.552C72.245 16.1067 73.2264 16.8747 73.9304 17.856L71.4344 20.864C71.1357 20.4587 70.7624 20.096 70.3144 19.776C69.8664 19.4347 69.3757 19.168 68.8424 18.976C68.3304 18.784 67.797 18.688 67.2424 18.688C66.3677 18.688 65.589 18.9013 64.9064 19.328C64.245 19.7333 63.7224 20.2987 63.3384 21.024C62.9544 21.7493 62.7624 22.5813 62.7624 23.52C62.7624 24.4373 62.9544 25.2587 63.3384 25.984C63.7437 26.688 64.2877 27.264 64.9704 27.712C65.653 28.1387 66.421 28.352 67.2744 28.352C67.829 28.352 68.3517 28.2773 68.8424 28.128C69.333 27.9573 69.7917 27.712 70.2184 27.392C70.6664 27.072 71.0717 26.688 71.4344 26.24L73.8984 29.248C73.173 30.1653 72.1704 30.912 70.8904 31.488C69.6104 32.0427 68.2557 32.32 66.8264 32.32ZM84.0421 32.32C82.3141 32.32 80.7675 31.9467 79.4021 31.2C78.0581 30.432 76.9915 29.3867 76.2021 28.064C75.4341 26.7413 75.0501 25.2267 75.0501 23.52C75.0501 21.8133 75.4341 20.3093 76.2021 19.008C76.9915 17.6853 78.0581 16.64 79.4021 15.872C80.7675 15.104 82.3141 14.72 84.0421 14.72C85.7488 14.72 87.2741 15.104 88.6181 15.872C89.9835 16.64 91.0501 17.6853 91.8181 19.008C92.5861 20.3093 92.9701 21.8133 92.9701 23.52C92.9701 25.2267 92.5861 26.7413 91.8181 28.064C91.0501 29.3867 89.9835 30.432 88.6181 31.2C87.2741 31.9467 85.7488 32.32 84.0421 32.32ZM84.0421 28.352C84.8741 28.352 85.6208 28.1493 86.2821 27.744C86.9435 27.3173 87.4555 26.7413 87.8181 26.016C88.2021 25.2693 88.3941 24.4373 88.3941 23.52C88.3941 22.5813 88.2021 21.7493 87.8181 21.024C87.4555 20.2773 86.9435 19.7013 86.2821 19.296C85.6208 18.8693 84.8741 18.656 84.0421 18.656C83.1888 18.656 82.4315 18.8693 81.7701 19.296C81.1088 19.7227 80.5861 20.2987 80.2021 21.024C79.8181 21.7493 79.6368 22.5813 79.6581 23.52C79.6368 24.4373 79.8181 25.2693 80.2021 26.016C80.5861 26.7413 81.1088 27.3173 81.7701 27.744C82.4315 28.1493 83.1888 28.352 84.0421 28.352ZM95.7169 32V15.072H100.101L100.197 18.304L99.5249 18.432C99.7595 17.8773 100.069 17.376 100.453 16.928C100.837 16.48 101.285 16.096 101.797 15.776C102.33 15.456 102.885 15.2107 103.461 15.04C104.037 14.848 104.613 14.752 105.189 14.752C106.064 14.752 106.853 14.8907 107.557 15.168C108.261 15.4453 108.858 15.8827 109.349 16.48C109.84 17.056 110.224 17.824 110.501 18.784L109.797 18.72L110.021 18.208C110.298 17.696 110.65 17.2373 111.077 16.832C111.504 16.4053 111.984 16.0427 112.517 15.744C113.05 15.424 113.605 15.1787 114.181 15.008C114.757 14.8373 115.322 14.752 115.877 14.752C117.2 14.752 118.298 15.0187 119.173 15.552C120.048 16.064 120.698 16.8427 121.125 17.888C121.573 18.9333 121.797 20.2133 121.797 21.728V32H117.253V22.048C117.253 21.28 117.146 20.6507 116.933 20.16C116.72 19.6693 116.41 19.3067 116.005 19.072C115.6 18.816 115.077 18.688 114.437 18.688C113.946 18.688 113.488 18.7733 113.061 18.944C112.656 19.0933 112.293 19.3173 111.973 19.616C111.674 19.8933 111.44 20.224 111.269 20.608C111.098 20.992 111.013 21.4187 111.013 21.888V32H106.469V22.016C106.469 21.312 106.352 20.7147 106.117 20.224C105.904 19.712 105.594 19.328 105.189 19.072C104.784 18.816 104.282 18.688 103.685 18.688C103.194 18.688 102.736 18.7733 102.309 18.944C101.904 19.0933 101.552 19.3173 101.253 19.616C100.954 19.8933 100.709 20.224 100.517 20.608C100.346 20.992 100.261 21.408 100.261 21.856V32H95.7169ZM133.516 32.32C131.681 32.32 130.081 31.9467 128.716 31.2C127.351 30.4533 126.284 29.4293 125.516 28.128C124.748 26.8267 124.364 25.3333 124.364 23.648C124.364 22.3467 124.577 21.152 125.004 20.064C125.431 18.976 126.028 18.0373 126.796 17.248C127.564 16.4373 128.471 15.8187 129.516 15.392C130.583 14.944 131.735 14.72 132.972 14.72C134.124 14.72 135.191 14.9333 136.172 15.36C137.153 15.7653 137.996 16.352 138.7 17.12C139.425 17.8667 139.98 18.752 140.364 19.776C140.748 20.8 140.919 21.92 140.876 23.136L140.844 24.544H127.244L126.508 21.76H137.1L136.588 22.336V21.632C136.545 21.056 136.353 20.5333 136.012 20.064C135.692 19.5947 135.276 19.232 134.764 18.976C134.252 18.72 133.676 18.592 133.036 18.592C132.097 18.592 131.297 18.7733 130.636 19.136C129.996 19.4987 129.505 20.032 129.164 20.736C128.823 21.44 128.652 22.2933 128.652 23.296C128.652 24.32 128.865 25.2053 129.292 25.952C129.74 26.6987 130.359 27.2853 131.148 27.712C131.959 28.1173 132.908 28.32 133.996 28.32C134.743 28.32 135.425 28.2027 136.044 27.968C136.663 27.7333 137.324 27.328 138.028 26.752L140.204 29.792C139.585 30.3467 138.903 30.816 138.156 31.2C137.409 31.5627 136.641 31.84 135.852 32.032C135.063 32.224 134.284 32.32 133.516 32.32ZM154.398 32V10.784H158.942V32H154.398ZM151.23 19.136V15.072H162.398V19.136H151.23ZM172.436 32.32C170.708 32.32 169.161 31.9467 167.796 31.2C166.452 30.432 165.385 29.3867 164.596 28.064C163.828 26.7413 163.444 25.2267 163.444 23.52C163.444 21.8133 163.828 20.3093 164.596 19.008C165.385 17.6853 166.452 16.64 167.796 15.872C169.161 15.104 170.708 14.72 172.436 14.72C174.143 14.72 175.668 15.104 177.012 15.872C178.377 16.64 179.444 17.6853 180.212 19.008C180.98 20.3093 181.364 21.8133 181.364 23.52C181.364 25.2267 180.98 26.7413 180.212 28.064C179.444 29.3867 178.377 30.432 177.012 31.2C175.668 31.9467 174.143 32.32 172.436 32.32ZM172.436 28.352C173.268 28.352 174.015 28.1493 174.676 27.744C175.337 27.3173 175.849 26.7413 176.212 26.016C176.596 25.2693 176.788 24.4373 176.788 23.52C176.788 22.5813 176.596 21.7493 176.212 21.024C175.849 20.2773 175.337 19.7013 174.676 19.296C174.015 18.8693 173.268 18.656 172.436 18.656C171.583 18.656 170.825 18.8693 170.164 19.296C169.503 19.7227 168.98 20.2987 168.596 21.024C168.212 21.7493 168.031 22.5813 168.052 23.52C168.031 24.4373 168.212 25.2693 168.596 26.016C168.98 26.7413 169.503 27.3173 170.164 27.744C170.825 28.1493 171.583 28.352 172.436 28.352Z" fill="#161616"/>
<path d="M98.1299 76.3604L97.0746 78.4616H107.122L108.184 76.3604H98.1299ZM95.9439 80.731L94.8455 82.9216H97.7602L98.8479 80.731H95.9439ZM100.836 85.1803L99.774 87.2815L77.6048 130.926H66.4162L35.2265 71.095H35.0075C34.523 71.9004 34.0491 72.7236 33.6112 73.5577L64.5532 133.035H79.475L102.653 87.2815L103.715 85.1803H100.836ZM103.091 80.731L101.974 82.9216H104.864L105.962 80.731H103.091ZM93.8189 85.1803V84.9691L92.6595 87.2815L72.7374 127.035H71.3841L46.8208 78.4616H50.8698L71.8077 120.728L91.0154 82.1198L91.7082 80.7274L92.8425 78.458L93.8871 76.3568H90.9795L71.8077 114.894L52.74 76.3604H42.7861L69.5212 129.14H74.4999L95.5526 87.285L96.6152 85.1839H93.8189V85.1803ZM95.9439 80.731L94.8455 82.9216H97.7602L98.8479 80.731H95.9439Z" fill="url(#paint0_linear_72_16632)"/>
<path d="M93.0866 130.926V124.612L130.195 85.1802H100.833L99.7703 87.2814H124.8L90.3872 123.882V133.035H150.857C151.191 132.333 151.517 131.631 151.823 130.923H93.0866V130.926ZM93.8188 85.1802V84.969L92.6594 87.2814H95.5562L96.6187 85.1802H93.8188ZM111.121 122.017L145.742 85.3449V76.3604H91.0154V78.4615H143.046V84.697L105.736 124.129H144.496V126.477H101.486V123.964L137.242 85.9964V80.7309H95.9438L94.8454 82.9216H134.546V85.2697L98.6934 123.323V128.578H147.192V122.017H111.121ZM91.0154 80.7309V82.1233L91.7082 80.7309H91.0154Z" fill="url(#paint1_linear_72_16632)"/>
<path d="M56.351 146.408L52.9409 139.249H54.3983L56.0244 142.774C56.473 143.741 56.8607 144.611 57.1407 145.452H57.173C57.4674 144.625 57.9017 143.719 58.3647 142.785L60.1308 139.249H61.5702L57.8371 146.408H56.351Z" fill="#78275B"/>
<path d="M70.7416 139.825C70.7559 140.143 70.4149 140.398 69.8729 140.398C69.3919 140.398 69.0509 140.143 69.0509 139.825C69.0509 139.496 69.4063 139.241 69.9016 139.241C70.4185 139.238 70.7416 139.496 70.7416 139.825ZM69.2232 146.408V141.267H70.5872V146.408H69.2232Z" fill="#78275B"/>
<path d="M79.4642 139.345C80.0528 139.259 80.9825 139.195 81.9266 139.195C83.2727 139.195 84.1414 139.352 84.7911 139.714C85.3331 139.989 85.6597 140.415 85.6597 140.977C85.6597 141.668 84.9921 142.273 83.8937 142.549V142.57C84.8844 142.739 86.0474 143.304 86.0474 144.364C86.0474 144.979 85.692 145.448 85.1644 145.795C84.4357 146.254 83.2583 146.465 81.5533 146.465C80.6236 146.465 79.9129 146.422 79.4606 146.379L79.4642 139.345ZM80.8102 142.277H82.0343C83.4593 142.277 84.2957 141.768 84.2957 141.078C84.2957 140.24 83.366 139.911 82.002 139.911C81.381 139.911 81.0256 139.943 80.8102 139.975V142.277ZM80.8102 145.706C81.0723 145.738 81.46 145.749 81.941 145.749C83.3337 145.749 84.6224 145.398 84.6224 144.356C84.6224 143.379 83.3983 142.975 81.9266 142.975H80.8102V145.706Z" fill="#78275B"/>
<path d="M99.8349 143.05H95.7751V145.631H100.298V146.408H94.4254V139.249H100.065V140.025H95.7751V142.288H99.8349V143.05Z" fill="#78275B"/>
<path d="M111.189 145.867L116.982 140.058V140.025H111.684V139.249H118.734V139.811L112.969 145.599V145.631H118.809V146.408H111.189V145.867Z" fill="#78275B"/>
<path d="M135.96 142.753C135.96 145.216 133.774 146.522 131.111 146.522C128.354 146.522 126.416 145.058 126.416 142.889C126.416 140.616 128.476 139.13 131.265 139.13C134.119 139.134 135.96 140.63 135.96 142.753ZM127.859 142.871C127.859 144.399 129.068 145.77 131.19 145.77C133.329 145.77 134.535 144.421 134.535 142.796C134.535 141.371 133.451 139.886 131.204 139.886C128.975 139.886 127.859 141.3 127.859 142.871Z" fill="#78275B"/>
<defs>
<linearGradient id="paint0_linear_72_16632" x1="33.6108" y1="101.961" x2="88.3527" y2="69.0128" gradientUnits="userSpaceOnUse">
<stop stop-color="#AAD7F3"/>
<stop offset="1" stop-color="#DA5280"/>
</linearGradient>
<linearGradient id="paint1_linear_72_16632" x1="90.3869" y1="104.603" x2="137.876" y2="78.8675" gradientUnits="userSpaceOnUse">
<stop stop-color="#DA5280"/>
<stop offset="1" stop-color="#AAD7F3"/>
</linearGradient>
</defs>
</svg>
